<?xml version='1.0' encoding='iso-8859-1'?>
<!-- Uploaded to: SVG Repo, www.svgrepo.com, Generator: SVG Repo Mixer Tools -->
<svg fill="#000000" height="800px" width="800px" version="1.1" xmlns="http://www.w3.org/2000/svg" viewBox="0 0 409.222 409.222" xmlns:xlink="http://www.w3.org/1999/xlink" enable-background="new 0 0 409.222 409.222">
  <path d="m50.768,42.656c0-8.182 5.358-13.75 9.664-18.224 4.353-4.522 8.11-8.427 8.414-14.9 0.259-5.517 4.938-9.785 10.458-9.521 5.517,0.258 9.779,4.94 9.521,10.457-0.656,13.986-8.675,22.319-13.981,27.833-1.419,1.474-3.52,3.657-4.067,4.692 0.19,3.981 3.732,7.166 8.06,7.166 4.448,0 8.066-3.366 8.066-7.503 0-5.523 4.478-10 10-10s10,4.477 10,10c0,15.165-12.591,27.503-28.066,27.503-15.478,1.42109e-14-28.069-12.338-28.069-27.503zm100.241,163.019c0.477,0.067 0.95,0.101 1.418,0.101 4.899,0 9.18-3.604 9.888-8.596l.108-.764c0.776-5.468-3.027-10.53-8.495-11.306-5.465-0.774-10.53,3.027-11.306,8.496l-.108,.764c-0.776,5.467 3.027,10.529 8.495,11.305zm130.158,106.241c5.522,0 10-4.477 10-10v-24.327c0-7.899 6.427-14.326 14.326-14.326h44.471c18.928,0 34.326-15.399 34.326-34.327 0-18.927-15.398-34.326-34.326-34.326h-38.558c-7.898,0-14.324-6.427-14.324-14.327 0-7.899 6.426-14.326 14.324-14.326h26.079c18.927,0 34.325-15.398 34.325-34.326 0-5.523-4.478-10-10-10s-10,4.477-10,10c0,7.899-6.427,14.326-14.325,14.326h-26.079c-18.927,0-34.324,15.398-34.324,34.326 0,18.928 15.397,34.327 34.324,34.327h38.558c7.899,0 14.326,6.426 14.326,14.326 0,7.9-6.427,14.327-14.326,14.327h-44.471c-18.928,0-34.326,15.398-34.326,34.326v24.327c0,5.523 4.478,10 10,10zm-101.144-59.061c-12.677-0.203-21.789-9.053-22.158-21.522-0.164-5.521-4.806-9.864-10.293-9.699-5.521,0.164-9.862,4.771-9.698,10.292 0.681,22.962 18.664,40.556 41.829,40.927 0.055,0.001 0.109,0.001 0.163,0.001 5.448,0 9.908-4.373 9.996-9.84 0.088-5.522-4.318-10.07-9.839-10.159zm229.198,146.366c0,5.523-4.478,10-10,10h-73.5c-0.03,0-0.061,0-0.091,0-0.029,0-0.06,0-0.089,0h-315.541c-5.522,0-10-4.477-10-10s4.478-10 10-10h14.934v-278.97c0-5.523 4.478-10 10-10h33.901v-9.284c0-5.523 4.478-10 10-10s10,4.477 10,10v9.284h33.901c5.522,0 10,4.477 10,10v11.556c0,5.523-4.478,10-10,10-5.522,0-10-4.477-10-10v-1.556h-67.802v268.97h67.803v-66.137c0-5.523 4.478-10 10-10 5.522,0 10,4.477 10,10v66.137h11.929c-0.014-0.22-0.021-0.441-0.021-0.665 0-5.523 4.478-10 10-10h14.327v-67.351c-19.89-2.537-37.425-11.798-50.107-26.644-14.952-17.503-21.288-40.529-17.841-64.839l9.236-65.168c0.699-4.932 4.921-8.597 9.901-8.597h117.622c4.98,0 9.202,3.665 9.901,8.597l9.237,65.169c3.445,24.311-2.892,47.338-17.845,64.841-12.681,14.844-30.217,24.104-50.105,26.641v67.351h14.326c5.522,0 10,4.477 10,10 0,0.223-0.007,0.445-0.021,0.665h107.524l32.814-41.433h-137.948c-5.522,0-10-4.477-10-10s4.478-10 10-10h158.624c3.835,0 7.333,2.193 9.002,5.646 1.67,3.453 1.219,7.556-1.163,10.563l-35.815,45.224h52.907c5.523,0 10,4.477 10,10zm-230.249-107.317c18.036-0.329 33.976-7.545 44.898-20.331 11.173-13.078 15.878-30.495 13.248-49.043l-8.019-56.573h-100.256l-8.018,56.573c-2.631,18.547 2.073,35.963 13.245,49.041 10.925,12.787 26.865,20.005 44.902,20.333z"/>
</svg>